<svg width="16" height="20" viewBox="0 0 16 20" fill="none" xmlns="http://www.w3.org/2000/svg">
<path d="M8.03908 8.5C10.1988 8.5 11.9497 6.82107 11.9497 4.75C11.9497 2.67894 10.1988 1 8.03908 1C5.87932 1 4.12848 2.67894 4.12848 4.75C4.12848 6.82107 5.87932 8.5 8.03908 8.5Z" stroke="#5C5F6A" stroke-width="1.42857" stroke-linecap="round" stroke-linejoin="round"/>
<path d="M1 19V18.1869C1.01245 17.0436 1.32689 15.9219 1.91394 14.9267C2.501 13.9315 3.34151 13.0953 4.35697 12.496C5.37244 11.8968 6.52973 11.5541 7.72072 11.5C7.8269 11.4952 7.93305 11.4927 8.03908 11.4925C8.1451 11.4927 8.25127 11.4952 8.35745 11.5C9.54844 11.5541 10.7057 11.8968 11.7212 12.496C12.3051 12.8406 12.8312 13.2636 13.2845 13.75" stroke="#5C5F6A" stroke-width="1.42857" stroke-linecap="round" stroke-linejoin="round"/>
</svg>
